<svg width="54" height="33" viewBox="0 0 54 33" fill="none" xmlns="http://www.w3.org/2000/svg">
<path d="M50.3431 16.4336L35.3781 17.9583L40.0779 5.21968L50.3431 16.4336Z" fill="#D9D9D9"/>
<path d="M2.18327 16.008L13.2188 5.58338L17.0004 18.6363L2.18327 16.008Z" fill="#D9D9D9"/>
<ellipse cx="26.9583" cy="16.0442" rx="17.9722" ry="16.0442" fill="#D9D9D9"/>
<path d="M27.0466 0L40.9434 24.0664H13.1498L27.0466 0Z" fill="#8D8D8D"/>
<ellipse cx="18.935" cy="14.0796" rx="6.09772" ry="6.22124" fill="#6CC1BC"/>
<ellipse cx="18.814" cy="13.9115" rx="4.81399" ry="4.9115" fill="black"/>
<ellipse cx="18.614" cy="22.9204" rx="8.98612" ry="3.9292" fill="#D9D9D9"/>
<ellipse cx="35.6236" cy="14.0796" rx="6.09772" ry="6.22124" fill="#6CC1BC"/>
<ellipse cx="35.6236" cy="14.0797" rx="4.81399" ry="4.9115" fill="black"/>
<path d="M16.0975 25.9264C19.296 24.7772 20.7082 23.3921 22.0137 21.6106C21.9001 22.4549 20.5578 24.5 16.0975 25.9264Z" fill="black"/>
<ellipse cx="35.9445" cy="22.9204" rx="8.98612" ry="3.9292" fill="#D9D9D9"/>
<path d="M27.2793 22.2655L29.7807 19.8097H24.7778L27.2793 22.2655Z" fill="#FF9B71"/>
<path d="M10.9468 22.7834C15.8883 22.9107 18.6662 22.1401 21.5745 20.9558C20.8533 21.7081 17.718 23.1268 10.9468 22.7834Z" fill="black"/>
<path d="M11.9808 25.6531C16.7754 24.9172 19.2314 23.5177 21.6955 21.6106C21.2147 22.6204 18.5987 24.8425 11.9808 25.6531Z" fill="black"/>
<path d="M40.1627 25.9264C36.4612 24.7772 34.8269 23.392 33.3161 21.6106C33.4476 22.4548 35.001 24.4999 40.1627 25.9264Z" fill="black"/>
<path d="M45.1851 22.7834C39.4665 22.9107 36.2518 22.1401 32.8862 20.9558C33.7208 21.7081 37.3491 23.1268 45.1851 22.7834Z" fill="black"/>
<path d="M44.4235 25.6531C38.875 24.9172 36.0328 23.5177 33.1812 21.6106C33.7376 22.6204 36.765 24.8425 44.4235 25.6531Z" fill="black"/>
</svg>
